# xmcd
#
# Track frame offsets: 
#        150
#        21096
#        40917
#        62469
#        88224
#        117150
#        138031
#        165197
#        185805
#
# Disc length: 2658 seconds
#
# Revision: 0
# Processed by: cddbd v1.5.2PL0 Copyright (c) Steve Scherf et al.
# Submitted via: ExactAudioCopy v1.3
#
DISCID=6c0a6009
DTITLE=Jimmy Johnson - Every Day Of Your Life
DYEAR=2019
DGENRE=Blues
TTITLE0=Every Day of Your Life
TTITLE1=I Need You so Bad
TTITLE2=My Ring
TTITLE3=Rattlesnake
TTITLE4=Somebody Loan Me a Dime
TTITLE5=Down in the Valley
TTITLE6=Strange Things Happening
TTITLE7=Better When It's Wet
TTITLE8=Lead Me On
EXTD=
EXTT0=
EXTT1=
EXTT2=
EXTT3=
EXTT4=
EXTT5=
EXTT6=
EXTT7=
EXTT8=
PLAYORDER=
